<svg width="65" height="65" xmlns="http://www.w3.org/2000/svg" xmlns:xlink="http://www.w3.org/1999/xlink" overflow="hidden"><defs><clipPath id="clip0"><rect x="649" y="145" width="65" height="65"/></clipPath></defs><g clip-path="url(#clip0)" transform="translate(-649 -145)"><path d="M26.2708 48.0729C26.2708 49.4191 25.1795 50.5104 23.8333 50.5104 22.4871 50.5104 21.3958 49.4191 21.3958 48.0729 21.3958 46.7267 22.4871 45.6354 23.8333 45.6354 25.1795 45.6354 26.2708 46.7267 26.2708 48.0729Z" fill="#D2D2D2" transform="matrix(-1 0 0 1 714 145)"/><path d="M15.7083 24.5781C15.7083 25.0643 15.3143 25.4583 14.8281 25.4583 14.342 25.4583 13.9479 25.0643 13.9479 24.5781 13.9479 24.092 14.342 23.6979 14.8281 23.6979 15.3143 23.6979 15.7083 24.092 15.7083 24.5781Z" fill="#D2D2D2" transform="matrix(-1 0 0 1 714 145)"/><path d="M30.0625 46.651C30.0625 47.1372 29.6684 47.5312 29.1823 47.5312 28.6962 47.5312 28.3021 47.1372 28.3021 46.651 28.3021 46.1649 28.6962 45.7708 29.1823 45.7708 29.6684 45.7708 30.0625 46.1649 30.0625 46.651Z" fill="#D2D2D2" transform="matrix(-1 0 0 1 714 145)"/><path d="M51.1875 20.8542C51.1875 21.8264 50.3993 22.6146 49.4271 22.6146 48.4548 22.6146 47.6667 21.8264 47.6667 20.8542 47.6667 19.8819 48.4548 19.0938 49.4271 19.0938 50.3993 19.0938 51.1875 19.8819 51.1875 20.8542Z" fill="#FFC000" transform="matrix(-1 0 0 1 714 145)"/><path d="M34.125 51.7292C34.125 52.7014 33.3368 53.4896 32.3646 53.4896 31.3923 53.4896 30.6042 52.7014 30.6042 51.7292 30.6042 50.7569 31.3923 49.9688 32.3646 49.9688 33.3368 49.9688 34.125 50.7569 34.125 51.7292Z" fill="#D2D2D2" transform="matrix(-1 0 0 1 714 145)"/><path d="M28.7083 18.4167C27.3746 17.1465 25.7568 16.4407 25.7568 16.4407 24.7775 17.0268 23.8535 17.7408 23.0097 18.5846 21.3497 20.2448 20.1906 22.2147 19.5248 24.3074 19.5248 24.3074 19.6682 25.6944 20.3034 26.3701 24.6819 31.0284 32.5451 38.368 37.1673 40.7423 38.145 41.2445 39.6355 41.2002 39.6355 41.2002 40.4556 40.7703 41.2416 40.2529 41.9821 39.6516 41.9821 39.6516 41.8436 37.6457 41.1665 36.2915 38.3229 30.6042 31.5521 21.125 28.7083 18.4167Z" fill="#F2F2F2" transform="matrix(-1 0 0 1 714 145)"/><path d="M23.0099 38.6602C26.2753 41.9257 30.7355 43.2655 34.9835 42.684 34.9835 42.684 35.2857 41.3667 34.7118 40.2729 32.7979 36.6257 25.1063 29.8368 21.0618 27.3091 19.8977 26.5815 18.986 26.6866 18.986 26.6866 18.4045 30.9346 19.7446 35.3949 23.0099 38.6602Z" fill="#D2D2D2" transform="matrix(-1 0 0 1 714 145)"/><path d="M43.0851 18.5843C39.0569 14.5561 33.2111 13.4584 28.1887 15.2841 28.1887 15.2841 27.8846 16.3528 28.5729 17.9924 31.0284 23.8424 38.1784 32.0396 42.4396 35.0007 43.7638 35.9209 45.1475 36.0436 45.1475 36.0436 48.5081 30.5745 47.8231 23.3221 43.0851 18.5843Z" fill="#D2D2D2" transform="matrix(-1 0 0 1 714 145)"/><path d="M19.5249 24.3074C19.277 25.0868 19.0959 25.8825 18.986 26.6866L34.9835 42.684C36.59 42.464 38.166 41.9705 39.6355 41.2004L19.5249 24.3074Z" fill="#737373" transform="matrix(-1 0 0 1 714 145)"/><path d="M28.1887 15.2841C27.4075 15.5679 26.6468 15.9234 25.9152 16.3483 25.8624 16.3791 25.8093 16.4094 25.7568 16.4408L28.5148 21.9567C30.9775 26.8821 34.1571 31.4148 37.9497 35.4071L41.9823 39.6519C42.013 39.627 42.0434 39.6015 42.0738 39.5763 42.4214 39.2892 42.76 38.9854 43.0853 38.66 43.891 37.8541 44.5761 36.9739 45.1475 36.0436L28.1887 15.2841Z" fill="#E6E6E6" transform="matrix(-1 0 0 1 714 145)"/><path d="M45.2468 35.859C44.9655 36.3364 44.6508 36.7993 44.3091 37.2481 45.6079 39.5892 46.0346 41.3485 45.308 42.075 44.5517 42.8313 42.6747 42.3359 40.1894 40.9099 37.1935 39.1912 33.3125 36.1191 29.4316 32.2381 25.5506 28.3572 22.4785 24.4762 20.7596 21.4803 19.3338 18.995 18.8384 17.1183 19.5947 16.3619 20.3212 15.6353 22.0805 16.0619 24.4216 17.3607 24.8702 17.0188 25.3331 16.7041 25.8106 16.4229 20.3679 12.4564 16.0109 10.6161 14.5825 12.0445 13.0831 13.544 15.1854 18.2701 19.5674 24.0908 21.8281 27.094 24.6951 30.388 27.9883 33.6812 31.2818 36.9747 34.5758 39.8416 37.5789 42.1021 43.3998 46.4843 48.126 48.5866 49.6253 47.0871 51.0538 45.6587 49.2131 41.3015 45.2468 35.859Z" fill="#FFC000" transform="matrix(-1 0 0 1 714 145)"/></g></svg>