<svg width="70" height="70" xmlns="http://www.w3.org/2000/svg" xmlns:xlink="http://www.w3.org/1999/xlink" overflow="hidden"><defs><clipPath id="clip0"><rect x="32" y="105" width="70" height="70"/></clipPath></defs><g clip-path="url(#clip0)" transform="translate(-32 -105)"><path d="M80.118 139.854 73.5555 139.854 73.5555 135.479 80.118 135.479C81.3262 135.479 82.3055 136.459 82.3055 137.667L82.3055 137.667C82.3055 138.875 81.3262 139.854 80.118 139.854Z" fill="#505050"/><path d="M62.7638 139.854 53.913 139.854C52.7048 139.854 51.7255 138.875 51.7255 137.667L51.7255 137.667C51.7255 136.459 52.7048 135.479 53.913 135.479L62.7638 135.479 62.7638 139.854Z" fill="#505050"/><path d="M76.9207 135.479C76.9207 135.479 75.5972 134.75 66.9931 134.75 58.3889 134.75 57.3571 135.479 57.3571 135.479 55.2784 137.801 54.0139 140.867 54.0139 144.229L54.0139 150.208C54.0139 150.208 55.0347 151.958 66.9931 151.958 78.9514 151.958 80.2639 150.208 80.2639 150.208L80.2639 144.229C80.2638 140.867 78.9993 137.801 76.9207 135.479Z" fill="#D2D2D2"/><path d="M66.4097 141.743 65.5347 141.743 65.5347 135.253 65.243 135.253 65.243 141.743 57.8055 141.743 57.8055 143.639 66.4097 143.639 66.4097 144.222 62.1606 144.222 62.1606 146.118 66.4097 146.118 66.4097 146.701 57.8055 146.701 57.8055 148.597 66.4097 148.597 66.4097 150.493 66.7013 150.493 66.7013 135.253 66.4097 135.253Z" fill="#E6E6E6"/><path d="M76.5451 135.326 76.3992 135.326C76.359 135.326 76.3263 135.359 76.3263 135.399L76.3263 141.743 71.5138 141.743 71.5138 143.639 76.3263 143.639 76.3263 144.222 67.868 144.222 67.868 146.118 76.3263 146.118 76.3263 146.701 67.868 146.701 67.868 148.597 76.3263 148.597 76.3263 150.493 76.618 150.493 76.618 135.399C76.618 135.359 76.5853 135.326 76.5451 135.326Z" fill="#E6E6E6"/><path d="M67.868 141.743 70.2013 141.743 70.2013 143.639 67.868 143.639Z" fill="#E6E6E6"/><path d="M54.0138 150.208 80.2638 150.208 80.2638 157.208 54.0138 157.208Z" fill="#505050"/><path d="M57.8055 155.309 66.5555 155.309 66.5555 157.212 57.8055 157.212Z" fill="#2F2F2F"/><path d="M67.868 155.309 70.2013 155.309 70.2013 157.212 67.868 157.212Z" fill="#2F2F2F"/><path d="M78.9513 152.104C78.9513 152.507 78.6249 152.833 78.2222 152.833 77.8195 152.833 77.493 152.507 77.493 152.104 77.493 151.701 77.8195 151.375 78.2222 151.375 78.6249 151.375 78.9513 151.701 78.9513 152.104Z" fill="#737373"/><path d="M78.9513 155.458C78.9513 155.861 78.6249 156.188 78.2222 156.188 77.8195 156.188 77.493 155.861 77.493 155.458 77.493 155.056 77.8195 154.729 78.2222 154.729 78.6249 154.729 78.9513 155.056 78.9513 155.458Z" fill="#737373"/><path d="M56.493 152.104C56.493 152.507 56.1665 152.833 55.7638 152.833 55.3611 152.833 55.0347 152.507 55.0347 152.104 55.0347 151.701 55.3611 151.375 55.7638 151.375 56.1665 151.375 56.493 151.701 56.493 152.104Z" fill="#737373"/><path d="M56.493 155.458C56.493 155.861 56.1665 156.188 55.7638 156.188 55.3611 156.188 55.0347 155.861 55.0347 155.458 55.0347 155.056 55.3611 154.729 55.7638 154.729 56.1665 154.729 56.493 155.056 56.493 155.458Z" fill="#737373"/><path d="M65.243 151.521 65.5347 151.521 65.5347 156.479 65.243 156.479Z" fill="#737373"/><path d="M64.0763 151.521 64.368 151.521 64.368 156.479 64.0763 156.479Z" fill="#737373"/><path d="M62.793 151.521 63.0847 151.521 63.0847 156.479 62.793 156.479Z" fill="#737373"/><path d="M61.5972 151.521 61.8888 151.521 61.8888 156.479 61.5972 156.479Z" fill="#737373"/><path d="M67.1388 131.104C63.2519 131.104 59.7603 132.794 57.357 135.479L76.9207 135.479C74.5175 132.794 71.0258 131.104 67.1388 131.104Z" fill="#737373"/><path d="M82.3055 152.956 86.6805 152.956C89.0967 152.956 91.0555 150.998 91.0555 148.581L91.0555 144.206C91.0555 139.374 87.138 135.456 82.3055 135.456L82.3055 152.956Z" fill="#D2D2D2"/><path d="M86.6805 148.604C84.2643 148.604 82.3055 150.563 82.3055 152.979L82.3055 153.271 83.1076 153.271C83.7116 153.271 84.2013 153.761 84.2013 154.365 84.2013 154.969 83.7116 155.458 83.1076 155.458L82.3055 155.458 82.3055 157.354C87.138 157.354 91.0555 153.437 91.0555 148.604L86.6805 148.604Z" fill="#FFC000"/><path d="M89.6648 144.229 91.0625 144.229 91.0625 146.125 89.6648 146.125Z" fill="#FFC000"/><path d="M87.7013 144.229 89.0921 144.229 89.0921 146.125 87.7013 146.125Z" fill="#FFC000"/><path d="M51.707 122.573 47.332 122.573C44.9157 122.573 42.957 124.532 42.957 126.948L42.957 131.323C42.957 136.155 46.8745 140.073 51.707 140.073L51.707 122.573Z" fill="#D2D2D2"/><path d="M49.8111 121.165C49.8111 121.769 50.3008 122.258 50.9049 122.258L51.707 122.258 51.707 122.55C51.707 124.966 49.7482 126.925 47.332 126.925L42.957 126.925C42.957 122.093 46.8745 118.175 51.707 118.175L51.707 120.071 50.9049 120.071C50.3008 120.071 49.8111 120.561 49.8111 121.165Z" fill="#FFC000"/><path d="M42.9375 129.404 46.3111 129.404 46.3111 131.3 42.9375 131.3Z" fill="#737373"/><path d="M80.2638 163.917C80.2638 160.292 77.3257 157.354 73.7013 157.354L73.7013 157.354C70.0769 157.354 67.1388 160.292 67.1388 163.917 67.1388 163.917 68.7964 165.351 73.7013 165.351 78.6062 165.351 80.2638 163.917 80.2638 163.917Z" fill="#D2D2D2"/><path d="M80.264 166.104 67.139 166.104 67.139 163.917 80.264 163.917Z" fill="#505050"/><path d="M71.5138 163.042 76.4722 163.042 76.4722 164.938 71.5138 164.938Z" fill="#505050"/><path d="M53.9409 163.917C53.9409 160.292 56.879 157.354 60.5034 157.354L60.5034 157.354C64.1278 157.354 67.0659 160.292 67.0659 163.917 67.0659 163.917 65.4423 165.253 60.5034 165.253 55.5646 165.253 53.9409 163.917 53.9409 163.917Z" fill="#D2D2D2"/><path d="M53.9409 163.917 67.0659 163.917 67.0659 166.104 53.9409 166.104Z" fill="#FFC000"/><path d="M59.8472 162.896 64.8055 162.896 64.8055 164.792 59.8472 164.792Z" fill="#505050"/><path d="M75.4674 122.062C75.1097 121.698 74.7275 121.357 74.3246 121.042 72.3436 119.49 69.8503 118.562 67.1388 118.562 64.4274 118.562 61.9341 119.49 59.953 121.042 59.5502 121.357 59.1679 121.698 58.8102 122.062 56.7463 124.167 55.4722 127.049 55.4722 130.229L55.4722 132.715 78.8055 132.715 78.8055 130.229C78.8055 127.049 77.5314 124.167 75.4674 122.062Z" fill="#FFC000"/><path d="M76.0347 125.781C76.0347 125.983 75.8714 126.146 75.6701 126.146 75.4687 126.146 75.3055 125.983 75.3055 125.781 75.3055 125.58 75.4687 125.417 75.6701 125.417 75.8714 125.417 76.0347 125.58 76.0347 125.781Z" fill="#505050"/><path d="M58.8263 125.781C58.8263 125.983 58.6631 126.146 58.4617 126.146 58.2604 126.146 58.0972 125.983 58.0972 125.781 58.0972 125.58 58.2604 125.417 58.4617 125.417 58.6631 125.417 58.8263 125.58 58.8263 125.781Z" fill="#505050"/><path d="M69.7638 126.292C69.7638 127.902 68.458 129.208 66.8472 129.208 65.2363 129.208 63.9305 127.902 63.9305 126.292 63.9305 124.681 65.2363 123.375 66.8472 123.375 68.458 123.375 69.7638 124.681 69.7638 126.292Z" fill="#2F2F2F"/><path d="M67.868 125.781C67.868 125.983 67.7048 126.146 67.5034 126.146 67.3021 126.146 67.1388 125.983 67.1388 125.781 67.1388 125.58 67.3021 125.417 67.5034 125.417 67.7048 125.417 67.868 125.58 67.868 125.781Z" fill="#FFFFFF"/><path d="M66.993 124.833C66.993 125.236 66.6665 125.562 66.2638 125.562 65.8611 125.562 65.5347 125.236 65.5347 124.833 65.5347 124.431 65.8611 124.104 66.2638 124.104 66.6665 124.104 66.993 124.431 66.993 124.833Z" fill="#FFFFFF"/><path d="M55.4709 130.827 64.2209 130.827 64.2209 132.723 55.4709 132.723Z" fill="#2F2F2F"/><path d="M73.5546 130.827 76.4722 130.827 76.4722 132.723 73.5546 132.723Z" fill="#2F2F2F"/><path d="M70.0546 130.827 72.9722 130.827 72.9722 132.723 70.0546 132.723Z" fill="#2F2F2F"/><path d="M67.1388 119.292C66.9778 119.292 66.8472 119.161 66.8472 119L66.8472 113.896C66.8472 113.735 66.9778 113.604 67.1388 113.604 67.2999 113.604 67.4305 113.735 67.4305 113.896L67.4305 119C67.4305 119.161 67.2999 119.292 67.1388 119.292Z" fill="#FFC000"/></g></svg>